%TF.GenerationSoftware,KiCad,Pcbnew,(7.0.0)*%
%TF.CreationDate,2023-03-03T22:18:02+01:00*%
%TF.ProjectId,Carte,43617274-652e-46b6-9963-61645f706362,rev?*%
%TF.SameCoordinates,Original*%
%TF.FileFunction,Copper,L1,Top*%
%TF.FilePolarity,Positive*%
%FSLAX46Y46*%
G04 Gerber Fmt 4.6, Leading zero omitted, Abs format (unit mm)*
G04 Created by KiCad (PCBNEW (7.0.0)) date 2023-03-03 22:18:02*
%MOMM*%
%LPD*%
G01*
G04 APERTURE LIST*
%ADD10C,0.750000*%
%TA.AperFunction,NonConductor*%
%ADD11C,0.750000*%
%TD*%
%TA.AperFunction,ComponentPad*%
%ADD12C,4.000000*%
%TD*%
%TA.AperFunction,ComponentPad*%
%ADD13C,2.000000*%
%TD*%
%TA.AperFunction,ComponentPad*%
%ADD14C,6.000000*%
%TD*%
%TA.AperFunction,ComponentPad*%
%ADD15C,3.000000*%
%TD*%
%TA.AperFunction,Conductor*%
%ADD16C,1.500000*%
%TD*%
%TA.AperFunction,Conductor*%
%ADD17C,0.250000*%
%TD*%
%TA.AperFunction,Conductor*%
%ADD18C,1.000000*%
%TD*%
G04 APERTURE END LIST*
D10*
D11*
X57285714Y-68204285D02*
X55000000Y-68204285D01*
X56142857Y-69347142D02*
X56142857Y-67061428D01*
D10*
D11*
X57285714Y-76204285D02*
X55000000Y-76204285D01*
D12*
%TO.P,J3,1,Pin_1*%
%TO.N,Net-(J1-Pin_1)*%
X135000000Y-94000000D03*
%TO.P,J3,2,Pin_2*%
%TO.N,Net-(J1-Pin_2)*%
X135000000Y-102000000D03*
%TD*%
D13*
%TO.P,R2,1*%
%TO.N,Net-(J6-Pin_1)*%
X95000000Y-58200000D03*
%TO.P,R2,2*%
%TO.N,Net-(R2-Pad2)*%
X110000000Y-58200000D03*
%TD*%
D14*
%TO.P,J1,1,Pin_1*%
%TO.N,Net-(J1-Pin_1)*%
X63000000Y-68000000D03*
%TO.P,J1,2,Pin_2*%
%TO.N,Net-(J1-Pin_2)*%
X63000000Y-76000000D03*
%TD*%
D15*
%TO.P,REF\u002A\u002A,1*%
%TO.N,N/C*%
X57000000Y-105000000D03*
%TD*%
D13*
%TO.P,GYRO1,1,Vin*%
%TO.N,unconnected-(GYRO1-Vin-Pad1)*%
X137000000Y-63000000D03*
%TO.P,GYRO1,2,GND*%
%TO.N,Net-(GYRO1-GND)*%
X137000000Y-65540000D03*
%TO.P,GYRO1,3,SCL*%
%TO.N,unconnected-(GYRO1-SCL-Pad3)*%
X137000000Y-68080000D03*
%TO.P,GYRO1,4,SDA*%
%TO.N,unconnected-(GYRO1-SDA-Pad4)*%
X137000000Y-70620000D03*
%TD*%
D12*
%TO.P,J2,1,Pin_1*%
%TO.N,Net-(J1-Pin_1)*%
X76000000Y-94000000D03*
%TO.P,J2,2,Pin_2*%
%TO.N,Net-(J1-Pin_2)*%
X76000000Y-102000000D03*
%TD*%
D15*
%TO.P,REF\u002A\u002A,1*%
%TO.N,N/C*%
X57000000Y-33000000D03*
%TD*%
D12*
%TO.P,J5,1,Pin_1*%
%TO.N,Net-(J1-Pin_1)*%
X133000000Y-43000000D03*
%TO.P,J5,2,Pin_2*%
%TO.N,Net-(J1-Pin_2)*%
X133000000Y-35000000D03*
%TD*%
D13*
%TO.P,R3,1*%
%TO.N,Net-(R2-Pad2)*%
X95000000Y-50200000D03*
%TO.P,R3,2*%
%TO.N,Net-(J1-Pin_2)*%
X95000000Y-35200000D03*
%TD*%
%TO.P,J8,1,Pin_1*%
%TO.N,Net-(GYRO1-GND)*%
X129000000Y-80000000D03*
%TD*%
%TO.P,J7,1,Pin_1*%
%TO.N,Net-(J7-Pin_1)*%
X129000000Y-62000000D03*
%TD*%
D15*
%TO.P,REF\u002A\u002A,1*%
%TO.N,N/C*%
X149000000Y-33000000D03*
%TD*%
D13*
%TO.P,REGULATEUR1,1,Vin+*%
%TO.N,Net-(J1-Pin_1)*%
X82000000Y-62000000D03*
%TO.P,REGULATEUR1,2,Vin-*%
%TO.N,Net-(J1-Pin_2)*%
X82000000Y-80000000D03*
%TO.P,REGULATEUR1,3,Vout+*%
%TO.N,Net-(J7-Pin_1)*%
X122000000Y-62000000D03*
%TO.P,REGULATEUR1,4,Vout-*%
%TO.N,Net-(GYRO1-GND)*%
X122000000Y-80000000D03*
%TD*%
D15*
%TO.P,REF\u002A\u002A,1*%
%TO.N,N/C*%
X149000000Y-105000000D03*
%TD*%
D13*
%TO.P,J6,1,Pin_1*%
%TO.N,Net-(J6-Pin_1)*%
X90000000Y-58200000D03*
%TD*%
%TO.P,R1,1*%
%TO.N,Net-(J1-Pin_1)*%
X85000000Y-43200000D03*
%TO.P,R1,2*%
%TO.N,Net-(J6-Pin_1)*%
X85000000Y-58200000D03*
%TD*%
D12*
%TO.P,J4,1,Pin_1*%
%TO.N,Net-(J1-Pin_1)*%
X74000000Y-43000000D03*
%TO.P,J4,2,Pin_2*%
%TO.N,Net-(J1-Pin_2)*%
X74000000Y-35000000D03*
%TD*%
D16*
%TO.N,Net-(J1-Pin_1)*%
X63120000Y-68200000D02*
X71600000Y-68200000D01*
X144000000Y-53000000D02*
X134180000Y-43180000D01*
X63120000Y-53720000D02*
X63120000Y-68200000D01*
X135020000Y-93980000D02*
X144000000Y-85000000D01*
X73660000Y-43180000D02*
X63120000Y-53720000D01*
X144000000Y-85000000D02*
X144000000Y-53000000D01*
X134180000Y-43180000D02*
X73660000Y-43180000D01*
D17*
X63120000Y-65660000D02*
X63500000Y-66040000D01*
D16*
X77800000Y-62000000D02*
X82000000Y-62000000D01*
X76200000Y-93980000D02*
X135020000Y-93980000D01*
X71600000Y-68200000D02*
X77800000Y-62000000D01*
%TO.N,Net-(J1-Pin_2)*%
X63000000Y-76000000D02*
X71800000Y-76000000D01*
X150000000Y-48000000D02*
X150000000Y-93000000D01*
X73660000Y-35180000D02*
X137180000Y-35180000D01*
X63120000Y-88900000D02*
X63120000Y-76200000D01*
X75800000Y-80000000D02*
X82000000Y-80000000D01*
X150000000Y-93000000D02*
X141020000Y-101980000D01*
X141020000Y-101980000D02*
X76200000Y-101980000D01*
X71800000Y-76000000D02*
X75800000Y-80000000D01*
X137180000Y-35180000D02*
X150000000Y-48000000D01*
X76200000Y-101980000D02*
X63120000Y-88900000D01*
D17*
%TO.N,Net-(J6-Pin_1)*%
X94800000Y-58200000D02*
X95000000Y-58000000D01*
D18*
X85000000Y-58200000D02*
X94800000Y-58200000D01*
D17*
%TO.N,Net-(J7-Pin_1)*%
X128800000Y-62000000D02*
X129000000Y-62200000D01*
D18*
X122000000Y-62000000D02*
X128800000Y-62000000D01*
%TO.N,Net-(R2-Pad2)*%
X110000000Y-58200000D02*
X110000000Y-53400000D01*
X110000000Y-53400000D02*
X106800000Y-50200000D01*
X106800000Y-50200000D02*
X95000000Y-50200000D01*
%TO.N,Net-(GYRO1-GND)*%
X129000000Y-70000000D02*
X129000000Y-79000000D01*
X122000000Y-80000000D02*
X129000000Y-80000000D01*
X137000000Y-65540000D02*
X133460000Y-65540000D01*
X133460000Y-65540000D02*
X129000000Y-70000000D01*
%TD*%
M02*
