M48
; DRILL file {KiCad (7.0.0)} date Fri Mar  3 22:18:05 2023
; FORMAT={-:-/ absolute / inch / decimal}
; #@! TF.CreationDate,2023-03-03T22:18:05+01:00
; #@! TF.GenerationSoftware,Kicad,Pcbnew,(7.0.0)
; #@! TF.FileFunction,Plated,1,2,PTH
FMAT,2
INCH
; #@! TA.AperFunction,Plated,PTH,ComponentDrill
T1C0.0354
; #@! TA.AperFunction,Plated,PTH,ComponentDrill
T2C0.0709
; #@! TA.AperFunction,Plated,PTH,ComponentDrill
T3C0.1181
; #@! TA.AperFunction,Plated,PTH,ComponentDrill
T4C0.1575
%
G90
G05
T1
X3.2283Y-2.4409
X3.2283Y-3.1496
X3.3465Y-1.7008
X3.3465Y-2.2913
X3.5433Y-2.2913
X3.7402Y-1.3858
X3.7402Y-1.9764
X3.7402Y-2.2913
X4.3307Y-2.2913
X4.8031Y-2.4409
X4.8031Y-3.1496
X5.0787Y-2.4409
X5.0787Y-3.1496
X5.3937Y-2.4803
X5.3937Y-2.5803
X5.3937Y-2.6803
X5.3937Y-2.7803
T2
X2.9134Y-1.378
X2.9134Y-1.6929
X2.9921Y-3.7008
X2.9921Y-4.0157
X5.2362Y-1.378
X5.2362Y-1.6929
X5.315Y-3.7008
X5.315Y-4.0157
T3
X2.2441Y-1.2992
X2.2441Y-4.1339
X5.8661Y-1.2992
X5.8661Y-4.1339
T4
X2.4803Y-2.6772
X2.4803Y-2.9921
T0
M30
