G04 This is an RS-274x file exported by *
G04 gerbv version 2.8.0~e0c645 *
G04 More information is available about gerbv at *
G04 https://gerbv.github.io/ *
G04 --End of header info--*
%MOIN*%
%FSLAX36Y36*%
%IPPOS*%
G04 --Define apertures--*
%ADD10C,0.0039*%
%ADD11C,0.0295*%
%ADD12C,0.1575*%
%ADD13C,0.0787*%
%ADD14C,0.2362*%
%ADD15C,0.1181*%
%ADD16C,0.0591*%
%ADD17C,0.0098*%
%ADD18C,0.0394*%
G04 --Start main section--*
G54D10*
G01X2086614Y-1141732D02*
G01X6023622Y-1141732D01*
G01X6023622Y-1141732D02*
G01X6023622Y-4291339D01*
G01X6023622Y-4291339D02*
G01X2086614Y-4291339D01*
G01X2086614Y-4291339D02*
G01X2086614Y-1141732D01*
G01X0000000Y0000000D02*
G54D11*
G01X2255343Y-2685208D02*
G01X2165354Y-2685208D01*
G01X2210349Y-2730202D02*
G01X2210349Y-2640214D01*
G01X2255343Y-3000169D02*
G01X2165354Y-3000169D01*
G54D12*
G01X5314961Y-3700787D03*
G01X5314961Y-4015748D03*
G54D13*
G01X3740157Y-2291339D03*
G01X4330709Y-2291339D03*
G54D14*
G01X2480315Y-2677165D03*
G01X2480315Y-2992126D03*
G54D15*
G01X2244094Y-4133858D03*
G54D13*
G01X5393701Y-2480315D03*
G01X5393701Y-2580315D03*
G01X5393701Y-2680315D03*
G01X5393701Y-2780315D03*
G54D12*
G01X2992126Y-3700787D03*
G01X2992126Y-4015748D03*
G54D15*
G01X2244094Y-1299213D03*
G54D12*
G01X5236220Y-1692913D03*
G01X5236220Y-1377953D03*
G54D13*
G01X3740157Y-1976378D03*
G01X3740157Y-1385827D03*
G01X5078740Y-3149606D03*
G01X5078740Y-2440945D03*
G54D15*
G01X5866142Y-1299213D03*
G54D13*
G01X3228346Y-2440945D03*
G01X3228346Y-3149606D03*
G01X4803150Y-2440945D03*
G01X4803150Y-3149606D03*
G54D15*
G01X5866142Y-4133858D03*
G54D13*
G01X3543307Y-2291339D03*
G01X3346457Y-1700787D03*
G01X3346457Y-2291339D03*
G54D12*
G01X2913386Y-1692913D03*
G01X2913386Y-1377953D03*
G54D16*
G01X2485039Y-2685039D02*
G01X2818898Y-2685039D01*
G01X5669291Y-2086614D02*
G01X5282677Y-1700000D01*
G01X2485039Y-2114961D02*
G01X2485039Y-2685039D01*
G01X5315748Y-3700000D02*
G01X5669291Y-3346457D01*
G01X2900000Y-1700000D02*
G01X2485039Y-2114961D01*
G01X5669291Y-3346457D02*
G01X5669291Y-2086614D01*
G01X5282677Y-1700000D02*
G01X2900000Y-1700000D01*
G54D17*
G01X2485039Y-2585039D02*
G01X2500000Y-2600000D01*
G54D16*
G01X3062992Y-2440945D02*
G01X3228346Y-2440945D01*
G01X3000000Y-3700000D02*
G01X5315748Y-3700000D01*
G01X2818898Y-2685039D02*
G01X3062992Y-2440945D01*
G01X2480315Y-2992126D02*
G01X2826772Y-2992126D01*
G01X5905512Y-1889764D02*
G01X5905512Y-3661417D01*
G01X2900000Y-1385039D02*
G01X5400787Y-1385039D01*
G01X2485039Y-3500000D02*
G01X2485039Y-3000000D01*
G01X2984252Y-3149606D02*
G01X3228346Y-3149606D01*
G01X5905512Y-3661417D02*
G01X5551969Y-4014961D01*
G01X5551969Y-4014961D02*
G01X3000000Y-4014961D01*
G01X2826772Y-2992126D02*
G01X2984252Y-3149606D01*
G01X5400787Y-1385039D02*
G01X5905512Y-1889764D01*
G01X3000000Y-4014961D02*
G01X2485039Y-3500000D01*
G54D17*
G01X3732283Y-2291339D02*
G01X3740157Y-2283465D01*
G54D18*
G01X3346457Y-2291339D02*
G01X3732283Y-2291339D01*
G54D17*
G01X5070866Y-2440945D02*
G01X5078740Y-2448819D01*
G54D18*
G01X4803150Y-2440945D02*
G01X5070866Y-2440945D01*
G01X4330709Y-2291339D02*
G01X4330709Y-2102362D01*
G01X4330709Y-2102362D02*
G01X4204724Y-1976378D01*
G01X4204724Y-1976378D02*
G01X3740157Y-1976378D01*
G01X5078740Y-2755906D02*
G01X5078740Y-3110236D01*
G01X4803150Y-3149606D02*
G01X5078740Y-3149606D01*
G01X5393701Y-2580315D02*
G01X5254331Y-2580315D01*
G01X5254331Y-2580315D02*
G01X5078740Y-2755906D01*
M02*
